<svg xmlns="http://www.w3.org/2000/svg" width="75" height="93.658" viewBox="0 0 75 93.658"><defs><style>.a{fill:#fc5353;}</style></defs><g transform="translate(-545 -2482.596)"><path class="a" d="M121.48,206a1.481,1.481,0,0,0-1.48,1.459v.021a1.48,1.48,0,0,0,2.96,0v-.021A1.481,1.481,0,0,0,121.48,206Zm0,0" transform="translate(447.166 2314.57)"/><path class="a" d="M23.78,0C11.963,0,0,3.142,0,9.146V66.219c0,6,11.963,9.146,23.78,9.146.357,0,.71,0,1.06-.009A25.612,25.612,0,1,0,49.39,42.439c-.614,0-1.23.024-1.845.068,0-1.2.009-19.33.01-21.687,0-.05.006-.1.006-.149s0-.07-.005-.105l.005-11.419h0C47.561,3.142,35.6,0,23.78,0Zm1.241,60.171c-.42.008-.835.012-1.241.012A49.225,49.225,0,0,1,8.838,58.133c-4.1-1.366-5.179-2.846-5.179-3.438V48.282C8.1,50.945,15.972,52.317,23.78,52.317c1.894,0,3.778-.08,5.6-.235a25.78,25.78,0,0,0-4.36,8.089Zm8.634-12.324a58.115,58.115,0,0,1-9.875.812A49.225,49.225,0,0,1,8.838,46.609c-4.1-1.366-5.179-2.846-5.179-3.438V37.322a19.159,19.159,0,0,0,3.235,1.506,45,45,0,0,0,9.583,2.1,1.829,1.829,0,0,0,.208-3.646c-.585-.1-7.035-.742-10.967-2.99a4.028,4.028,0,0,1-2.039-1.934c-.048-.259,0,.254-.02-6.574C8.1,28.445,15.972,29.817,23.78,29.817a53.245,53.245,0,0,0,15.953-2.189A20.824,20.824,0,0,0,43.913,25.8c0,6.713,0,6.5,0,6.513a2.074,2.074,0,0,1-.614.922c-.019.007-2.863,2.953-12.4,4.039l-.022,0a1.829,1.829,0,0,0,.207,3.646c2.193,0,9.369-1.546,12.823-3.6l0,5.7a25.63,25.63,0,0,0-10.249,4.813Zm10.252-15.52s0,0,0,0S43.908,32.326,43.908,32.326Zm.007-11.593c-.063.617-1.256,2.087-5.321,3.418a49.55,49.55,0,0,1-14.814,2.006A49.225,49.225,0,0,1,8.838,24.109c-4.1-1.366-5.179-2.846-5.179-3.438V14.257c4.442,2.663,12.313,4.035,20.122,4.035s15.7-1.372,20.138-4.034ZM8.838,5.708A49.225,49.225,0,0,1,23.78,3.658,49.225,49.225,0,0,1,38.723,5.708C42.82,7.073,43.9,8.554,43.9,9.146s-1.083,2.073-5.179,3.438A49.225,49.225,0,0,1,23.78,14.634,49.225,49.225,0,0,1,8.838,12.585c-4.1-1.366-5.179-2.846-5.179-3.438S4.741,7.073,8.838,5.708Zm0,63.95c-4.1-1.366-5.179-2.846-5.179-3.438V59.806C8.1,62.469,15.972,63.841,23.78,63.841h.346a25.809,25.809,0,0,0-.086,7.866h-.26A49.225,49.225,0,0,1,8.838,69.658Zm62.5-1.609a21.954,21.954,0,0,1-43.325,5.025.1.1,0,0,1,0-.014l0-.008a21.954,21.954,0,1,1,43.33-5Zm0,0" transform="translate(545 2482.596)"/><path class="a" d="M239.454,309.4a4.446,4.446,0,0,0,4.441,4.441,1.48,1.48,0,1,1,0,2.96,2.678,2.678,0,0,1-1.922-1.119,1.48,1.48,0,1,0-2.266,1.9,6.132,6.132,0,0,0,2.708,1.928v1.728a1.48,1.48,0,0,0,2.96,0v-1.735a4.44,4.44,0,0,0-1.48-8.627,1.48,1.48,0,1,1,0-2.96,2.378,2.378,0,0,1,1.6.774,1.48,1.48,0,1,0,2.058-2.127,5.712,5.712,0,0,0-2.179-1.363V303.48a1.48,1.48,0,1,0-2.96,0v1.735a4.448,4.448,0,0,0-2.96,4.186Zm0,0" transform="translate(350.875 2239.641)"/></g></svg>