<svg xmlns="http://www.w3.org/2000/svg" width="75.5" height="70.813" viewBox="0 0 75.5 70.813"><defs><style>.a,.b,.c{fill:#fc5353;stroke:#fc5353;}.a{stroke-width:0.5px;}.b{stroke-width:2px;}.c{stroke-width:2.5px;}</style></defs><g transform="translate(-544.75 -2828.346)"><path class="a" d="M247.785,320a1.785,1.785,0,1,0,1.785,1.785A1.786,1.786,0,0,0,247.785,320Zm0,0" transform="translate(334.715 2555.025)"/><path class="a" d="M4.395,55.664H30.176v5.859H25.781a7.326,7.326,0,0,0-7.324,7.324,1.465,1.465,0,0,0,1.465,1.465H55.078a1.465,1.465,0,0,0,1.465-1.465,7.332,7.332,0,0,0-7.324-7.324H44.824V55.664H70.606A4.4,4.4,0,0,0,75,51.269V4.395A4.4,4.4,0,0,0,70.606,0H4.395A4.4,4.4,0,0,0,0,4.395V51.269a4.4,4.4,0,0,0,4.395,4.395ZM53.362,67.383H21.636a4.405,4.405,0,0,1,4.145-2.93H49.219a4.4,4.4,0,0,1,4.143,2.93ZM41.895,61.523H33.105V55.664h8.789Zm29.747-9.218a1.455,1.455,0,0,1-1.036.429H4.394A1.465,1.465,0,0,1,2.93,51.269V43.945H72.07v7.324A1.455,1.455,0,0,1,71.641,52.305ZM3.359,3.359A1.455,1.455,0,0,1,4.394,2.93H70.605A1.465,1.465,0,0,1,72.07,4.395V41.016H2.93V4.395a1.455,1.455,0,0,1,.429-1.036Zm0,0" transform="translate(545 2828.596)"/><path class="b" d="M29.057,68.114a4.057,4.057,0,1,1,4.057-4.057A4.057,4.057,0,0,1,29.057,68.114Zm0-7.341a3.284,3.284,0,1,0,3.284,3.284A3.284,3.284,0,0,0,29.057,60.773Z" transform="translate(539.822 2794.168)"/><path class="b" d="M106.057,68.114a4.057,4.057,0,1,1,4.057-4.057A4.057,4.057,0,0,1,106.057,68.114Zm0-7.341a3.284,3.284,0,1,0,3.284,3.284A3.284,3.284,0,0,0,106.057,60.773Z" transform="translate(492.572 2794.168)"/><path class="c" d="M65.806,71.773H44.37a.387.387,0,0,1,0-.773H65.806a.387.387,0,0,1,0,.773Z" transform="translate(528.654 2787.418)"/><path class="b" d="M19.864,46a.386.386,0,0,1-.158-.035l-2.059-.916A2.778,2.778,0,0,1,16,42.523V36.978a2.94,2.94,0,0,1,1.932-2.763l2.542-.912a7.04,7.04,0,0,0,2.7-1.383l1.066-.889A8.771,8.771,0,0,1,29.847,29h7.832A12.167,12.167,0,0,1,44.2,30.9l4.4,2.805a7.461,7.461,0,0,0,2.457,1.008l5.8,1.244a5,5,0,0,1,3.956,4.86v3.06c0,1.611-3.184,2.044-3.821,2.113a.389.389,0,1,1-.085-.773c1.263-.143,3.133-.668,3.133-1.348V40.823a4.223,4.223,0,0,0-3.319-4.1l-5.8-1.244a8.23,8.23,0,0,1-2.7-1.109l-4.408-2.817a11.39,11.39,0,0,0-6.139-1.785H29.847a7.994,7.994,0,0,0-5.108,1.851l-1.066.889a7.762,7.762,0,0,1-2.952,1.545l-2.515.9a2.168,2.168,0,0,0-1.433,2.021v5.544a2,2,0,0,0,1.19,1.828l2.059.916a.386.386,0,0,1-.158.734Z" transform="translate(545.344 2813.191)"/></g></svg>