<svg xmlns="http://www.w3.org/2000/svg" width="54.771" height="75.596" viewBox="0 0 54.771 75.596">
  <g id="Component_33_1" data-name="Component 33 – 1" transform="translate(0.001)">
    <path id="Path_1786" data-name="Path 1786" d="M123.787,0H72.028a1.506,1.506,0,0,0-1.506,1.506V74.09A1.506,1.506,0,0,0,72.028,75.6h39.357a1.506,1.506,0,0,0,1.065-.441l12.4-12.4a1.506,1.506,0,0,0,.441-1.065V1.506A1.506,1.506,0,0,0,123.787,0Zm-10.9,70.457-.007-7.273,7.273.007Zm9.393-10.276-10.906-.01h0a1.506,1.506,0,0,0-1.506,1.507l.01,10.905H73.534V3.012h48.748Z" transform="translate(-70.522)" fill="#fc5353"/>
    <path id="Path_1787" data-name="Path 1787" d="M135.166,83.25a1.506,1.506,0,0,0-2.13,0L128.6,87.682l-1.1-1.1a1.506,1.506,0,0,0-2.13,2.13l2.165,2.165a1.506,1.506,0,0,0,2.13,0l5.5-5.5A1.506,1.506,0,0,0,135.166,83.25Z" transform="translate(-116.899 -70.582)" fill="#fc5353"/>
    <path id="Path_1788" data-name="Path 1788" d="M365.126,106.124H364.6a1.506,1.506,0,0,0,0,3.012h.528a1.506,1.506,0,0,0,0-3.012Z" transform="translate(-319.895 -90.453)" fill="#fc5353"/>
    <path id="Path_1789" data-name="Path 1789" d="M234.623,106.124H217.762a1.506,1.506,0,1,0,0,3.012h16.861a1.506,1.506,0,1,0,0-3.012Z" transform="translate(-194.739 -90.453)" fill="#fc5353"/>
    <path id="Path_1790" data-name="Path 1790" d="M135.166,181.986a1.506,1.506,0,0,0-2.13,0l-4.432,4.432-1.1-1.1a1.506,1.506,0,1,0-2.13,2.13l2.165,2.165a1.506,1.506,0,0,0,2.13,0l5.5-5.5A1.506,1.506,0,0,0,135.166,181.986Z" transform="translate(-116.899 -154.738)" fill="#fc5353"/>
    <path id="Path_1791" data-name="Path 1791" d="M239.97,204.859H217.762a1.506,1.506,0,1,0,0,3.012H239.97a1.506,1.506,0,1,0,0-3.012Z" transform="translate(-194.739 -174.611)" fill="#fc5353"/>
    <path id="Path_1792" data-name="Path 1792" d="M135.166,280.408a1.506,1.506,0,0,0-2.13,0L128.6,284.84l-1.1-1.1a1.506,1.506,0,1,0-2.13,2.13l2.165,2.165a1.506,1.506,0,0,0,2.13,0l5.5-5.5A1.506,1.506,0,0,0,135.166,280.408Z" transform="translate(-116.899 -238.629)" fill="#fc5353"/>
    <path id="Path_1793" data-name="Path 1793" d="M239.97,303.281H217.762a1.506,1.506,0,1,0,0,3.012H239.97a1.506,1.506,0,0,0,0-3.012Z" transform="translate(-194.739 -258.502)" fill="#fc5353"/>
  </g>
</svg>
