<svg width="74" height="52" xmlns="http://www.w3.org/2000/svg">
 <defs>
  <style>.a{isolation:isolate;}.b,.d{fill:none;}.b{stroke:#000;stroke-width:3px;}.c{fill:#fff;}.d{stroke:#3797fd;stroke-linecap:round;stroke-linejoin:round;stroke-width:2px;}</style>
 </defs>
 <title>Sea delivery</title>
 <g>
  <title>background</title>
  <rect fill="none" id="canvas_background" height="54" width="76" y="-1" x="-1"/>
 </g>
 <g>
  <title>Layer 1</title>
  <g id="svg_10">
   <path id="svg_1" d="m2.34193,38.68276l12,-2.3a27.24,27.24 0 0 1 10.26,0l6.88,1.32a27.24,27.24 0 0 0 10.26,0l7,-1.34a27.28,27.28 0 0 1 10,0l12.93,2.36m-69.36,11.48l12,-2.3a27.24,27.24 0 0 1 10.26,0l6.88,1.32a27.24,27.24 0 0 0 10.26,0l7,-1.34a27.49,27.49 0 0 1 10,0l12.93,2.36m-12.93,-8.1l12.93,2.36m-40.22,-1a27.24,27.24 0 0 0 10.26,0m-39.4,1l12,-2.3" class="d"/>
   <path id="svg_2" d="m65.17193,37.05276l4.9,-8.2l0,-4.92l-7.37,0l-4,4.9l-33.46,0l-4.08,-3.28l-15.56,0c0,5.74 0.79,8.24 3.26,11.48m-6.52,-35.2l17.13,0" class="d"/>
   <path id="svg_3" d="m17.84193,14.92276l4.08,0l0,-9l-4.08,0l0,9z" class="d"/>
   <path id="svg_4" d="m29.27193,28.83276l9.79,0l0,-6.56l-9.79,0l0,6.56z" class="d"/>
   <path id="svg_5" d="m39.06193,28.83276l9.79,0l0,-6.56l-9.79,0l0,6.56z" class="d"/>
   <path id="svg_6" d="m48.85193,28.83276l9.8,0l0,-6.56l-9.8,0l0,6.56z" class="d"/>
   <path id="svg_7" d="m34.16193,22.29276l9.8,0l0,-6.55l-9.8,0l0,6.55z" class="d"/>
   <path id="svg_8" d="m43.96193,22.29276l9.79,0l0,-6.55l-9.79,0l0,6.55z" class="d"/>
   <path id="svg_9" d="m25.19193,28.83276l0,-13.91l-15.49,0l0,10.65" class="d"/>
  </g>
 </g>
</svg>