<svg width="74" height="52" xmlns="http://www.w3.org/2000/svg">
 <defs>
  <style>.a{isolation:isolate;}.b,.d{fill:none;}.b{stroke:#000;stroke-width:3px;}.c{fill:#fff;}.d{stroke:#3797fd;stroke-linecap:round;stroke-linejoin:round;stroke-width:2px;}</style>
 </defs>
 <title>Contract sign</title>
 <g>
  <title>background</title>
  <rect fill="none" id="canvas_background" height="54" width="76" y="-1" x="-1"/>
 </g>
 <g>
  <title>Layer 1</title>
  <g id="svg_4">
   <path id="svg_1" d="m22.45214,40.0289l-8.87,0a5.62,5.62 0 0 1 -5.63,-5.6l0,0l0,-27.83a5.62,5.62 0 0 1 5.63,-5.6l46.73,0a5.62,5.62 0 0 1 5.64,5.6l0,27.79a5.62,5.62 0 0 1 -5.64,5.64l-8.86,0" class="d"/>
   <path id="svg_2" d="m48.31214,51.0289l-22.75,0a3.08,3.08 0 0 1 -3.11,-3.09l0,0l0,-17.58a3.1,3.1 0 0 1 3.11,-3.09l22.75,0a3.11,3.11 0 0 1 3.11,3.09l0,0l0,17.55a3.1,3.1 0 0 1 -3.11,3.12zm-1.16,-23.73l-20.44,0l0,-7.62a10.24,10.24 0 0 1 20.47,0l-0.03,7.62z" class="d"/>
   <path id="svg_3" d="m42.06214,27.2689l-10.23,0l0,-7.62a5.12,5.12 0 0 1 10.23,0l0,7.62zm-34.11,-18.64l17.91,0m-17.91,8.47l14.5,0m25.58,-8.47l17.92,0m-14.5,8.47l14.5,0" class="d"/>
  </g>
 </g>
</svg>