<svg width="74" height="52" xmlns="http://www.w3.org/2000/svg">
 <defs>
  <style>.a{isolation:isolate;}.b,.d{fill:none;}.b{stroke:#000;stroke-width:3px;}.c{fill:#fff;}.d{stroke:#3797fd;stroke-linecap:round;stroke-linejoin:round;stroke-width:2px;}</style>
 </defs>
 <title>Auto delivery</title>
 <g>
  <title>background</title>
  <rect fill="none" id="canvas_background" height="54" width="76" y="-1" x="-1"/>
 </g>
 <g>
  <title>Layer 1</title>
  <g id="svg_5">
   <path id="svg_1" d="m3.17446,45.49873l14.2,0m16.7,0l23.39,0m-50.12,-10.83l45.11,0m14.2,0l5,0m-70.16,15.83l71,0m-3.35,-5.83a5.85,5.85 0 1 1 -5.86,-5.84l0,0a5.84,5.84 0 0 1 5.84,5.84l0.02,0zm-40.09,0a5.85,5.85 0 1 1 -5.86,-5.84l0,0a5.84,5.84 0 0 1 5.85,5.84l0.01,0z" class="d"/>
   <path id="svg_2" d="m3.17446,45.49873l0,-44.14l49.28,0l0,44.17" class="d"/>
   <path id="svg_3" d="m63.31446,18.82873l-10.86,0l0,-5l10.86,0a2.5,2.5 0 0 1 0,5zm-10.86,10l14.06,0a5.15,5.15 0 0 1 5.15,5.14l0,0l0,9a2.5,2.5 0 0 1 -2.5,2.5l0,0m-5.84,-26.67l4.17,10m-4.17,-3.33l-0.84,3.33" class="d"/>
  </g>
 </g>
</svg>