<svg xmlns="http://www.w3.org/2000/svg" width="69.738" height="56.92" viewBox="0 0 69.738 56.92"><defs><style>.a{fill:#fc5353;}</style></defs><g transform="translate(-342 -5090.982)"><path class="a" d="M65,58.478H58.623l-1.466-6.624a6.092,6.092,0,0,0-5.985-4.806H29.02a6.093,6.093,0,0,0-5.985,4.806l-1.466,6.624H20.055V55.651a2.892,2.892,0,0,0-2.889-2.889H7.827a2.892,2.892,0,0,0-2.889,2.889v2.826h-.2A4.74,4.74,0,0,0,0,63.212V95.276a4.74,4.74,0,0,0,4.734,4.734H26.69a24.676,24.676,0,0,0,26.812,0H65a4.74,4.74,0,0,0,4.734-4.734V63.212A4.74,4.74,0,0,0,65,58.478ZM25.695,52.442a3.385,3.385,0,0,1,3.326-2.67H51.171a3.385,3.385,0,0,1,3.325,2.67l1.336,6.035H53.5a24.676,24.676,0,0,0-26.812,0H24.359ZM7.662,55.651a.165.165,0,0,1,.165-.164h9.34a.165.165,0,0,1,.165.164v2.826H7.662Zm3.276,41.634V82.491a1.362,1.362,0,0,0-2.724,0V97.286H4.734a2.013,2.013,0,0,1-2.01-2.01V63.212a2.012,2.012,0,0,1,2.01-2.01H23.209a24.684,24.684,0,0,0,0,36.084Zm41.734,0A21.981,21.981,0,1,1,62.1,79.244,21.953,21.953,0,0,1,52.672,97.286Zm14.342-2.01A2.012,2.012,0,0,1,65,97.286h-8.02a24.684,24.684,0,0,0,0-36.084H65a2.012,2.012,0,0,1,2.01,2.01Z" transform="translate(342 5043.934)"/><path class="a" d="M180.97,152.134a17.882,17.882,0,1,0,4.25,35.256,1.362,1.362,0,0,0-.645-2.646,15.16,15.16,0,1,1,8.952-6.233,1.362,1.362,0,1,0,2.255,1.529,17.885,17.885,0,0,0-14.811-27.906Z" transform="translate(201.125 4953.16)"/><path class="a" d="M38.142,185.527a5.072,5.072,0,1,0,5.072,5.072A5.077,5.077,0,0,0,38.142,185.527Zm0,7.419a2.348,2.348,0,1,1,2.348-2.348A2.35,2.35,0,0,1,38.142,192.946Z" transform="translate(313.434 4924.316)"/><path class="a" d="M357.98,372.921a1.461,1.461,0,0,0-.078-.255,1.381,1.381,0,0,0-.125-.234,1.3,1.3,0,0,0-.169-.207,1.343,1.343,0,0,0-.443-.3,1.373,1.373,0,0,0-.255-.078,1.346,1.346,0,0,0-.533,0,1.369,1.369,0,0,0-.255.078,1.435,1.435,0,0,0-.236.125,1.542,1.542,0,0,0-.207.17,1.3,1.3,0,0,0-.169.207,1.377,1.377,0,0,0-.125.234,1.44,1.44,0,0,0-.078.255,1.366,1.366,0,0,0-.027.267,1.342,1.342,0,0,0,.027.266,1.375,1.375,0,0,0,.078.255,1.343,1.343,0,0,0,.125.236,1.3,1.3,0,0,0,.169.207,1.426,1.426,0,0,0,.207.169,1.454,1.454,0,0,0,.236.125,1.372,1.372,0,0,0,.255.078,1.316,1.316,0,0,0,.533,0,1.369,1.369,0,0,0,.255-.078,1.433,1.433,0,0,0,.236-.125,1.366,1.366,0,0,0,.579-1.4Z" transform="translate(35.109 4763.395)"/></g></svg>