<svg xmlns="http://www.w3.org/2000/svg" width="57.018" height="57.018" viewBox="0 0 57.018 57.018"><defs><style>.a{fill:#fc5353;}</style></defs><g transform="translate(0 -0.002)"><g transform="translate(0 0.002)"><path class="a" d="M230.871,185.27a3.6,3.6,0,1,0-3.6,3.6A3.6,3.6,0,0,0,230.871,185.27Zm-4.974,0a1.373,1.373,0,1,1,1.373,1.373A1.375,1.375,0,0,1,225.9,185.27Z" transform="translate(-198.762 -161.438)"/><path class="a" d="M56.931,43.565,55.1,39.194l1-1.516a5.218,5.218,0,0,0,.668-4.25l-.925-3.354a6.224,6.224,0,0,0-2.612-3.568,1.112,1.112,0,0,0-.692-.175A24.1,24.1,0,0,0,33.193,3.883a1.114,1.114,0,0,0-.431,2.185A21.863,21.863,0,0,1,50.336,27.481c0,.308-.009.618-.022.927L47.989,29.65a19.852,19.852,0,0,0,.12-2.169,19.635,19.635,0,0,0-.321-3.542c0-.032-.011-.062-.018-.093a19.6,19.6,0,0,0-38.523.012c-.006.026-.011.052-.015.078a19.632,19.632,0,0,0-.322,3.545,19.849,19.849,0,0,0,.12,2.169L6.7,28.407c-.013-.307-.021-.618-.021-.926a21.858,21.858,0,0,1,17.6-21.418,1.114,1.114,0,1,0-.429-2.186A24.091,24.091,0,0,0,4.482,26.332a1.112,1.112,0,0,0-.692.175,6.224,6.224,0,0,0-2.612,3.568L.254,33.428a5.218,5.218,0,0,0,.668,4.25l1,1.516L.086,43.565a1.114,1.114,0,1,0,2.055.86l1.7-4.068L8.688,41.38l-4.2,17.694a1.114,1.114,0,1,0,2.167.515l3.842-16.172a24.032,24.032,0,0,0,36.031,0l3.841,16.171a1.114,1.114,0,1,0,2.167-.515L48.33,41.38l4.844-1.022,1.7,4.068a1.114,1.114,0,0,0,2.055-.86ZM52.2,29.926a1.114,1.114,0,0,0,.418-.389l.258-.409a4,4,0,0,1,.818,1.539l.925,3.354a2.991,2.991,0,0,1-.383,2.435l-1.068,1.627L47.353,39.31l-1.029-1.058a4.238,4.238,0,0,1-1.207-2.971V32.595a.723.723,0,0,1,.543-.7l.262-.068a2.7,2.7,0,0,0,2.618.054ZM14,31.727h6.614A3.672,3.672,0,0,1,24.277,35.4v8.941A17.28,17.28,0,0,1,13.92,36.914a6.515,6.515,0,0,0,.208-1.633V32.595A2.948,2.948,0,0,0,14,31.727ZM20.609,29.5H11.252a17.469,17.469,0,0,1,.06-4.492L22.62,22.279a25.22,25.22,0,0,1,11.776,0L45.7,25.007a17.419,17.419,0,0,1,.06,4.492H36.408a5.9,5.9,0,0,0-5.9,5.9v9.343a17.4,17.4,0,0,1-4.009,0V35.4A5.9,5.9,0,0,0,20.609,29.5Zm12.131,5.9a3.672,3.672,0,0,1,3.668-3.668h6.614a2.944,2.944,0,0,0-.133.868v2.686a6.515,6.515,0,0,0,.208,1.633A17.28,17.28,0,0,1,32.74,44.336ZM28.509,10.109A17.4,17.4,0,0,1,45.179,22.59l-10.26-2.475a27.458,27.458,0,0,0-12.821,0L11.838,22.59A17.4,17.4,0,0,1,28.509,10.109ZM2.4,34.02l.925-3.354a4,4,0,0,1,.818-1.539l.258.409a1.115,1.115,0,0,0,.418.389L8.477,31.88a2.7,2.7,0,0,0,2.618-.054l.262.068a.723.723,0,0,1,.543.7v2.686a4.238,4.238,0,0,1-1.207,2.971L9.665,39.31,3.852,38.083,2.784,36.456A2.991,2.991,0,0,1,2.4,34.02ZM28.509,49.308A21.872,21.872,0,0,1,11.264,40.86L12.29,39.8a6.6,6.6,0,0,0,.514-.6,19.589,19.589,0,0,0,31.409,0,6.564,6.564,0,0,0,.514.6l1.027,1.056A21.933,21.933,0,0,1,28.509,49.308Z" transform="translate(0 -3.427)"/><path class="a" d="M247.117,2.229h.027a1.114,1.114,0,0,0,0-2.227h-.027a1.114,1.114,0,0,0,0,2.227Z" transform="translate(-218.608 -0.002)"/></g></g></svg>