<svg xmlns="http://www.w3.org/2000/svg" width="49.121" height="57.018" viewBox="0 0 49.121 57.018"><defs><style>.a{fill:#fc5353;}</style></defs><g transform="translate(-1224 -4772.982)"><path class="a" d="M262.165,162.227a1.114,1.114,0,1,0-1.114-1.114A1.114,1.114,0,0,0,262.165,162.227Zm0,0" transform="translate(991.965 4630.801)"/><path class="a" d="M162.165,162.227a1.114,1.114,0,1,0-1.114-1.114A1.114,1.114,0,0,0,162.165,162.227Zm0,0" transform="translate(1080.828 4630.801)"/><path class="a" d="M189.217,231.808a7,7,0,0,0,5.9.027,1.114,1.114,0,1,0-.93-2.024,4.778,4.778,0,0,1-4.016-.018,1.114,1.114,0,1,0-.95,2.015Zm0,0" transform="translate(1056.367 4568.875)"/><path class="a" d="M49.62,45.188c0-6.124-6.974-10.926-12.952-11.154l-3.05-2.74A14.528,14.528,0,0,0,39.588,19.6V12.25A12.284,12.284,0,0,0,27.3,0H22.844A12.21,12.21,0,0,0,10.634,12.25V19.6a14.554,14.554,0,0,0,5.891,11.673l-3.073,2.761C7.487,34.261.5,39.052.5,45.188V55.9a1.114,1.114,0,0,0,1.114,1.114H48.507A1.114,1.114,0,0,0,49.62,55.9Zm-27.027,4.48h4.927l1.168,5.123h-7.3Zm5.023-2.227H22.523l-.854-2.662,3.392-1.7,3.465,1.733Zm-2.556-7.7-3.87-6.191a14.473,14.473,0,0,0,7.734.009Zm1.594,1.653L32,32.835l2.884,2.591-3.669,8.246ZM22.844,2.228H27.3A10.053,10.053,0,0,1,37.361,12.25v.92L35.269,10.16a1.114,1.114,0,0,0-1.711-.144,10.985,10.985,0,0,1-8.5,3.348,10.992,10.992,0,0,1-8.5-3.348,1.113,1.113,0,0,0-1.716.151l-1.985,2.908V12.25A10.014,10.014,0,0,1,22.844,2.228ZM12.861,19.6V17.026l3.093-4.532a13.34,13.34,0,0,0,9.107,3.1,13.334,13.334,0,0,0,9.113-3.1l3.186,4.588V19.6a12.25,12.25,0,1,1-24.5,0Zm5.258,13.235,5.348,8.555L18.9,43.671l-3.669-8.246ZM2.727,45.188c0-4.588,5.577-8.549,10.45-8.909l4.167,9.362a1.114,1.114,0,0,0,1.516.543l.793-.4.9,2.814L19.1,54.791H2.727Zm44.666,9.6H30.972l-1.407-6.173.969-2.8.726.364a1.114,1.114,0,0,0,1.516-.543l4.167-9.362c4.873.361,10.45,4.321,10.45,8.909Zm0,0" transform="translate(1223.5 4772.982)"/><path class="a" d="M306.619,446h-4.454a1.114,1.114,0,1,0,0,2.227h4.454a1.114,1.114,0,1,0,0-2.227Zm0,0" transform="translate(956.418 4376.65)"/><path class="a" d="M381.614,446a1.114,1.114,0,1,1-1.114,1.114A1.114,1.114,0,0,1,381.614,446Zm0,0" transform="translate(885.816 4376.65)"/></g></svg>