<svg xmlns="http://www.w3.org/2000/svg" width="67.23" height="75.471" viewBox="0 0 67.23 75.471">
  <g id="Component_34_1" data-name="Component 34 – 1" transform="translate(0)">
    <path id="Path_1794" data-name="Path 1794" d="M94.863,61.786a5.544,5.544,0,0,0-7.182-3.336l-1.639.618V39.734a1.474,1.474,0,1,0-2.948,0V60.178l-7.056,2.661a11.933,11.933,0,0,1-5.9.654,5.842,5.842,0,0,0,1.219-2.129,5.755,5.755,0,0,0-3.933-7.357l-12.932-3.4a1.474,1.474,0,0,0-.375-.048H44.061V47.783a1.474,1.474,0,0,0-1.474-1.474h-3.06V12.248h7.891a1.474,1.474,0,0,0,1.474-1.474V2.948h34.2V26.561a1.474,1.474,0,1,0,2.948,0V1.474A1.474,1.474,0,0,0,84.567,0H47.417a1.49,1.49,0,0,0-1.039.428l-9.365,9.3a1.491,1.491,0,0,0-.435,1.046V46.309H29.429a1.474,1.474,0,0,0-1.474,1.474V73.008a1.474,1.474,0,0,0,1.474,1.474H42.587a1.474,1.474,0,0,0,1.474-1.474V70.352h5.366l19.325,4.693a14.849,14.849,0,0,0,9.122-.668l13.843-5.6a5.534,5.534,0,0,0,3.147-6.992ZM45.943,9.3H41.628l4.315-4.285Zm-4.83,62.234H30.9V49.257h10.21Zm49.5-5.49-13.843,5.6a11.91,11.91,0,0,1-7.321.536l-19.5-4.735A1.472,1.472,0,0,0,49.6,67.4H44.061V53.509h9.86l12.749,3.35a2.721,2.721,0,0,1,1.17.642,2.855,2.855,0,0,1,.451,3.525,2.886,2.886,0,0,1-2.981,1.381l-8.594-2.026a1.474,1.474,0,0,0-.676,2.869l.008,0h.005c.273.064,4.89,1.153,8.437,1.993a43.882,43.882,0,0,0,5.966,1.25,15.488,15.488,0,0,0,6.917-1.009l11.349-4.28a2.62,2.62,0,0,1,3.363,1.562,2.591,2.591,0,0,1-1.474,3.274Z" transform="translate(-27.955)" fill="#fc5353"/>
    <path id="Path_1795" data-name="Path 1795" d="M169.548,93.682h-4.257a1.474,1.474,0,0,0,0,2.948h2.034v.883a1.474,1.474,0,0,0,2.948,0v-.946a4.239,4.239,0,0,0,3.508-4.17v-.178a4.238,4.238,0,0,0-4.233-4.233h-1.5a1.285,1.285,0,0,1,0-2.571h4.257a1.474,1.474,0,1,0,0-2.948h-2.034v-.883a1.474,1.474,0,0,0-2.948,0v.946a4.233,4.233,0,0,0,.725,8.4h1.5a1.287,1.287,0,0,1,1.285,1.285V92.4A1.287,1.287,0,0,1,169.548,93.682Z" transform="translate(-143.791 -68.303)" fill="#fc5353"/>
    <path id="Path_1796" data-name="Path 1796" d="M274.865,79.835H264.694a1.474,1.474,0,1,0,0,2.948h10.171a1.474,1.474,0,1,0,0-2.948Z" transform="translate(-228.543 -68.068)" fill="#fc5353"/>
    <path id="Path_1797" data-name="Path 1797" d="M274.865,132.632H264.694a1.474,1.474,0,1,0,0,2.948h10.171a1.474,1.474,0,1,0,0-2.948Z" transform="translate(-228.543 -113.084)" fill="#fc5353"/>
    <path id="Path_1798" data-name="Path 1798" d="M274.865,185.429H264.694a1.474,1.474,0,1,0,0,2.948h10.171a1.474,1.474,0,1,0,0-2.948Z" transform="translate(-228.543 -158.098)" fill="#fc5353"/>
    <path id="Path_1799" data-name="Path 1799" d="M190.113,238.226H165.291a1.474,1.474,0,0,0,0,2.948h24.822a1.474,1.474,0,1,0,0-2.948Z" transform="translate(-143.791 -203.113)" fill="#fc5353"/>
    <path id="Path_1800" data-name="Path 1800" d="M190.113,291.022H165.291a1.474,1.474,0,0,0,0,2.948h24.822a1.474,1.474,0,1,0,0-2.948Z" transform="translate(-143.791 -248.127)" fill="#fc5353"/>
    <path id="Path_1801" data-name="Path 1801" d="M404.774,215.451a1.473,1.473,0,1,0-.408,2.043A1.489,1.489,0,0,0,404.774,215.451Z" transform="translate(-346.936 -183.141)" fill="#fc5353"/>
  </g>
</svg>
