<svg id="Component_32_1" data-name="Component 32 – 1" xmlns="http://www.w3.org/2000/svg" width="78.215" height="75.16" viewBox="0 0 78.215 75.16">
  <path id="Path_1807" data-name="Path 1807" d="M152.431,90.885a1.75,1.75,0,1,0-2.761,2.153,1,1,0,0,1,0,1.23,27.268,27.268,0,0,1-9.523,7.753,14.578,14.578,0,0,0,.024-16.7,27.1,27.1,0,0,1,5.262,3.378c.269.22.534.447.79.673a1.75,1.75,0,1,0,2.321-2.621c-.288-.255-.588-.511-.891-.759a30.762,30.762,0,0,0-43.756,4.9,4.5,4.5,0,0,0,0,5.536,30.762,30.762,0,0,0,48.535,0A4.5,4.5,0,0,0,152.431,90.885Zm-36.251,11.137a27.272,27.272,0,0,1-9.523-7.753,1,1,0,0,1,0-1.23,27.27,27.27,0,0,1,9.523-7.753,14.577,14.577,0,0,0,0,16.737Zm11.984,2.756a11.124,11.124,0,1,1,11.124-11.124A11.137,11.137,0,0,1,128.163,104.777Z" transform="translate(-88.98 -69.609)" fill="#fc5353"/>
  <path id="Path_1808" data-name="Path 1808" d="M226.4,132.35a5.839,5.839,0,1,0,5.839,5.839A5.845,5.845,0,0,0,226.4,132.35Zm0,8.177a2.338,2.338,0,1,1,2.338-2.338A2.341,2.341,0,0,1,226.4,140.527Z" transform="translate(-187.221 -114.145)" fill="#fc5353"/>
  <path id="Path_1802" data-name="Path 1802" d="M73.021,0H5.194A5.2,5.2,0,0,0,0,5.194V52.551a5.2,5.2,0,0,0,5.194,5.194H30.858v6.111h-.611a9.788,9.788,0,0,0-9.777,9.777A1.528,1.528,0,0,0,22,75.16H56.217a1.528,1.528,0,0,0,1.528-1.528,9.788,9.788,0,0,0-9.777-9.777h-.611V57.745H73.021a5.2,5.2,0,0,0,5.194-5.194V5.194A5.2,5.2,0,0,0,73.021,0ZM54.515,72.1H23.7a6.733,6.733,0,0,1,6.546-5.194H47.968A6.733,6.733,0,0,1,54.515,72.1ZM44.3,63.855H33.914V57.745H44.3Zm30.858-11.3a2.141,2.141,0,0,1-2.139,2.139H5.194a2.141,2.141,0,0,1-2.139-2.139V48.579H64.466a1.528,1.528,0,1,0,0-3.055H3.055V5.194A2.141,2.141,0,0,1,5.194,3.055H73.021A2.141,2.141,0,0,1,75.16,5.194Zm0,0" fill="#fc5353"/>
  <path id="Path_1803" data-name="Path 1803" d="M247.535,327h-.014a1.535,1.535,0,1,0,.014,0Zm0,0" transform="translate(-208.42 -277.047)" fill="#fc5353"/>
  <path id="Path_1804" data-name="Path 1804" d="M453.532,298a1.528,1.528,0,1,0,1.08.448A1.539,1.539,0,0,0,453.532,298Zm0,0" transform="translate(-382.953 -252.477)" fill="#fc5353"/>
</svg>
