<svg width="74" height="52" xmlns="http://www.w3.org/2000/svg">
 <defs>
  <style>.a{isolation:isolate;}.b,.d{fill:none;}.b{stroke:#000;stroke-width:3px;}.c{fill:#fff;}.d{stroke:#3797fd;stroke-linecap:round;stroke-linejoin:round;stroke-width:2px;}</style>
 </defs>
 <title>Search</title>
 <g>
  <title>background</title>
  <rect fill="none" id="canvas_background" height="54" width="76" y="-1" x="-1"/>
 </g>
 <g>
  <title>Layer 1</title>
  <g id="svg_4">
   <path id="svg_1" d="m24.80401,45.47294l29.24,0m-52.62,5l71,0m-63.76,-19.14l4.13,-7.42a10,10 0 0 1 8.7,-5.1l17.42,0a15.12,15.12 0 0 1 10.31,4.07l4.77,4.46a14.75,14.75 0 0 0 10.07,4l1.74,0a6.69,6.69 0 0 1 6.69,6.67l0,0.83a6.69,6.69 0 0 1 -6.69,6.67" class="d"/>
   <path id="svg_2" d="m8.12401,45.47294l0,0a5.84,5.84 0 0 1 -5.85,-5.83l0,0l0,-2.5a5.84,5.84 0 0 1 5.85,-5.84l38.42,0" class="d"/>
   <path id="svg_3" d="m19.80401,44.64294a5.85,5.85 0 1 1 -5.86,-5.84l0,0a5.84,5.84 0 0 1 5.85,5.84l0.01,0zm45.94,0a5.85,5.85 0 1 1 -5.86,-5.84l0,0a5.84,5.84 0 0 1 5.84,5.84l0.02,0zm4.18,-35a8.36,8.36 0 1 1 -8.37,-8.34l0,0a8.36,8.36 0 0 1 8.38,8.34l-0.01,0zm-38.42,15.83l0,5.86m36.75,5l3.34,0m-69.33,0l3.34,0m62.65,-20l4.18,4.17" class="d"/>
  </g>
 </g>
</svg>