<svg xmlns="http://www.w3.org/2000/svg" width="51.946" height="51.947" viewBox="0 0 51.946 51.947"><defs><style>.a{fill:#fc5353;}</style></defs><g transform="translate(-165.06 -6164.053)"><path class="a" d="M231.433,222a8.929,8.929,0,1,0,8.929,8.929A8.939,8.939,0,0,0,231.433,222Zm0,15.828a6.9,6.9,0,1,1,6.9-6.9A6.907,6.907,0,0,1,231.433,237.828Zm0,0" transform="translate(-34.92 5964.576)"/><path class="a" d="M51.44,46.074l-8.052-8.053a13.168,13.168,0,0,0-1.9-15.675V10.956h0a1.013,1.013,0,0,0-.294-.717L31.248.3A1.012,1.012,0,0,0,30.531,0a.007.007,0,0,1,0,0H3.544A3.047,3.047,0,0,0,.5,3.043V48.9a3.047,3.047,0,0,0,3.044,3.044h34.9A3.047,3.047,0,0,0,41.488,48.9V45.852l5.087,5.087a3.44,3.44,0,1,0,4.865-4.866ZM31.953,42.613A11.161,11.161,0,1,1,43.114,31.452,11.174,11.174,0,0,1,31.953,42.613ZM31.546,3.464l6.478,6.478H32.56a1.016,1.016,0,0,1-1.015-1.015ZM39.458,48.9a1.016,1.016,0,0,1-1.015,1.015H3.544A1.016,1.016,0,0,1,2.529,48.9V3.043A1.016,1.016,0,0,1,3.544,2.028H29.516v6.9A3.047,3.047,0,0,0,32.56,11.97h6.9v8.642A13.187,13.187,0,0,0,19.407,35.524H7.009a1.015,1.015,0,1,0,0,2.029H19.965a1.006,1.006,0,0,0,.276-.039,13.181,13.181,0,0,0,18.281,5.373l.937.937Zm10.547.6a1.412,1.412,0,0,1-2,0l-7.786-7.786a13.305,13.305,0,0,0,2-2l7.786,7.786A1.413,1.413,0,0,1,50.005,49.5Zm0,0" transform="translate(164.56 6164.053)"/><path class="a" d="M301.519,265a1.015,1.015,0,1,0,0,2.029,2.539,2.539,0,0,1,2.536,2.536,1.015,1.015,0,0,0,2.029,0A4.57,4.57,0,0,0,301.519,265Zm0,0" transform="translate(-105.006 5925.936)"/><path class="a" d="M64.8,280.793H55.667a1.015,1.015,0,0,0,0,2.029H64.8a1.015,1.015,0,0,0,0-2.029Zm0,0" transform="translate(115.901 5911.75)"/><path class="a" d="M65.4,211.461H55.667a1.015,1.015,0,1,0,0,2.029H65.4a1.015,1.015,0,1,0,0-2.029Zm0,0" transform="translate(115.901 5974.047)"/><path class="a" d="M181.515,419.461a1.014,1.014,0,1,0,.718.3A1.02,1.02,0,0,0,181.515,419.461Zm0,0" transform="translate(2.822 5787.15)"/><path class="a" d="M64.269,419.461h-8.6a1.015,1.015,0,0,0,0,2.029h8.6a1.015,1.015,0,0,0,0-2.029Zm0,0" transform="translate(115.901 5787.15)"/><path class="a" d="M55.663,144.158a1.015,1.015,0,1,0-.717-.3A1.021,1.021,0,0,0,55.663,144.158Zm0,0" transform="translate(115.905 6036.344)"/><path class="a" d="M113.218,142.129H98.054a1.015,1.015,0,1,0,0,2.029h15.164a1.015,1.015,0,1,0,0-2.029Zm0,0" transform="translate(77.815 6036.344)"/><path class="a" d="M55.667,74.822H75.132a1.015,1.015,0,0,0,0-2.029H55.667a1.015,1.015,0,0,0,0,2.029Zm0,0" transform="translate(115.901 6098.645)"/></g></svg>