<svg xmlns="http://www.w3.org/2000/svg" width="49" height="57.018" viewBox="0 0 49 57.018"><defs><style>.a{fill:#fc5353;}</style></defs><g transform="translate(-1224 -5087.982)"><path class="a" d="M261.145,222.227a1.114,1.114,0,1,0-1.114-1.114A1.114,1.114,0,0,0,261.145,222.227Zm0,0" transform="translate(992.926 4892.482)"/><path class="a" d="M161.145,222.227a1.114,1.114,0,1,0-1.114-1.114A1.114,1.114,0,0,0,161.145,222.227Zm0,0" transform="translate(1081.791 4892.482)"/><path class="a" d="M0,53.46V55.9a1.114,1.114,0,0,0,1.114,1.114H47.886A1.114,1.114,0,0,0,49,55.9V53.458a10.619,10.619,0,0,0-7.092-10.2,7.813,7.813,0,0,0,2.675-5.884,1.114,1.114,0,0,0-1.114-1.114,5.619,5.619,0,0,1-5.48-4.408h3.219a3.343,3.343,0,0,0,3.337-3.341V23.386a3.346,3.346,0,0,0-2.227-3.15V17.818a17.818,17.818,0,0,0-35.636,0v2.42a3.348,3.348,0,0,0-2.227,3.148v5.123A3.346,3.346,0,0,0,7.8,31.85H11.01a5.614,5.614,0,0,1-5.475,4.408,1.114,1.114,0,0,0-1.114,1.114A7.814,7.814,0,0,0,7.1,43.262,10.694,10.694,0,0,0,0,53.46ZM42.262,38.392a5.581,5.581,0,0,1-3.427,4.165l-6.747-.876-.721-2.817a13.319,13.319,0,0,0,4.9-5.121,7.873,7.873,0,0,0,5.992,4.649ZM33.429,20.045A5.621,5.621,0,0,1,27.849,14.4a1.114,1.114,0,1,0-2.227,0,5.621,5.621,0,0,1-5.58,5.649H13.367a11.136,11.136,0,0,1,22.273,0ZM13.363,22.273h6.678a7.8,7.8,0,0,0,6.694-3.826,7.8,7.8,0,0,0,6.693,3.826h2.207V27.4a11.136,11.136,0,0,1-22.273,0Zm6.339,17.6a13.41,13.41,0,0,0,9.622-.009l.707,2.764a5.568,5.568,0,0,1-11.033,0ZM42.318,28.509a1.113,1.113,0,0,1-1.11,1.114H37.863v-7.35h3.344a1.113,1.113,0,0,1,1.11,1.114ZM24.5,2.227A15.607,15.607,0,0,1,40.09,17.818v2.227H37.867a13.364,13.364,0,0,0-26.727,0H8.909V17.818A15.586,15.586,0,0,1,24.5,2.227ZM6.682,28.509V23.386A1.118,1.118,0,0,1,7.8,22.273h3.337v7.35H7.8a1.117,1.117,0,0,1-1.117-1.114Zm6.05,5.231a13.452,13.452,0,0,0,4.926,5.134l-.717,2.807-6.765.878a5.585,5.585,0,0,1-3.432-4.167,7.868,7.868,0,0,0,5.988-4.652Zm-2.674,11.08.123-.016h0l6.807-.883a7.8,7.8,0,0,0,15.047,0l6.932.9a8.532,8.532,0,0,1,7.8,8.638v1.333H2.227V53.46a8.592,8.592,0,0,1,7.83-8.641Zm0,0" transform="translate(1224 5087.982)"/><path class="a" d="M188.2,291.808a7,7,0,0,0,5.9.027,1.114,1.114,0,0,0-.929-2.024,4.778,4.778,0,0,1-4.017-.017,1.114,1.114,0,0,0-.95,2.015Zm0,0" transform="translate(1057.328 4830.557)"/><path class="a" d="M301.145,448.227H305.6a1.114,1.114,0,1,0,0-2.227h-4.454a1.114,1.114,0,1,0,0,2.227Zm0,0" transform="translate(957.381 4691.65)"/><path class="a" d="M381.114,446A1.114,1.114,0,1,1,380,447.114,1.114,1.114,0,0,1,381.114,446Zm0,0" transform="translate(886.318 4691.65)"/></g></svg>