<svg xmlns="http://www.w3.org/2000/svg" width="46.772" height="57.018" viewBox="0 0 46.772 57.018"><defs><style>.a{fill:#fc5353;}</style></defs><g transform="translate(-164.114 -6449.609)"><path class="a" d="M121.114,128.227A1.114,1.114,0,1,0,120,127.114,1.114,1.114,0,0,0,121.114,128.227Zm0,0" transform="translate(57.478 6337.641)"/><path class="a" d="M121.114,188.227A1.114,1.114,0,1,0,120,187.114,1.114,1.114,0,0,0,121.114,188.227Zm0,0" transform="translate(57.478 6284.322)"/><path class="a" d="M12.25,57.018H38.977a7.8,7.8,0,0,0,7.8-7.8,1.114,1.114,0,0,0-1.114-1.114H42.318V5.568A5.574,5.574,0,0,0,36.75,0H4.455A4.46,4.46,0,0,0,0,4.455v5.568a1.114,1.114,0,0,0,1.114,1.114H6.682V51.211a5.681,5.681,0,0,0,5.568,5.807ZM38.977,54.79H16.7a5.575,5.575,0,0,0,1.116-3.352V50.325H44.433a5.588,5.588,0,0,1-5.456,4.466ZM40.091,5.568V48.109H16.7a1.114,1.114,0,0,0-1.114,1.114V51.45A3.345,3.345,0,0,1,12.25,54.79a3.445,3.445,0,0,1-3.341-3.579V4.455a4.448,4.448,0,0,0-.6-2.227H36.75a3.345,3.345,0,0,1,3.341,3.341ZM2.227,8.909V4.455a2.227,2.227,0,1,1,4.455,0V8.909Zm0,0" transform="translate(164.114 6449.609)"/><path class="a" d="M220,232.682a6.616,6.616,0,0,0,2.227,4.977v7.273a1.114,1.114,0,0,0,1.731.927l2.723-1.815,2.723,1.815a1.114,1.114,0,0,0,1.731-.927v-7.273a6.616,6.616,0,0,0,2.227-4.977,6.682,6.682,0,0,0-13.364,0Zm7.3,9.1a1.114,1.114,0,0,0-1.235,0l-1.61,1.073v-3.868a6.714,6.714,0,0,0,4.454,0v3.868Zm3.837-9.1a4.455,4.455,0,1,1-4.455-4.455A4.454,4.454,0,0,1,231.136,232.682Zm0,0" transform="translate(-31.386 6248.777)"/><path class="a" d="M121.114,68.227h20.045a1.114,1.114,0,1,0,0-2.227H121.114a1.114,1.114,0,1,0,0,2.227Zm0,0" transform="translate(57.478 6390.959)"/><path class="a" d="M161.114,128.227H176.7a1.114,1.114,0,0,0,0-2.227H161.114a1.114,1.114,0,1,0,0,2.227Zm0,0" transform="translate(21.933 6337.641)"/><path class="a" d="M161.114,188.227H176.7a1.114,1.114,0,0,0,0-2.227H161.114a1.114,1.114,0,1,0,0,2.227Zm0,0" transform="translate(21.933 6284.322)"/><path class="a" d="M121.114,308.227H127.8a1.114,1.114,0,1,0,0-2.227h-6.682a1.114,1.114,0,1,0,0,2.227Zm0,0" transform="translate(57.478 6177.688)"/><path class="a" d="M121.114,248.227H127.8a1.114,1.114,0,1,0,0-2.227h-6.682a1.114,1.114,0,1,0,0,2.227Zm0,0" transform="translate(57.478 6231.004)"/><path class="a" d="M121.114,368.227H127.8a1.114,1.114,0,1,0,0-2.227h-6.682a1.114,1.114,0,1,0,0,2.227Zm0,0" transform="translate(57.478 6124.367)"/></g></svg>