<?xml version="1.0" encoding="utf-8"?>
<!-- Generator: Adobe Illustrator 22.1.0, SVG Export Plug-In . SVG Version: 6.00 Build 0)  -->
<svg version="1.1" id="Layer_1" xmlns="http://www.w3.org/2000/svg" xmlns:xlink="http://www.w3.org/1999/xlink" x="0px" y="0px"
	 viewBox="0 0 266 215" style="enable-background:new 0 0 266 215;" xml:space="preserve">
<style type="text/css">
	.st0{fill:#DDECFE;fill-opacity:0.35;}
	.st1{filter:url(#Adobe_OpacityMaskFilter);}
	.st2{fill:#FFFFFF;}
	.st3{mask:url(#mask-2_1_);fill:#2767F4;}
	.st4{fill:#4988FD;}
	.st5{fill:#2767F4;}
	.st6{fill:#C5DCFA;}
	.st7{fill:#21D3AC;}
	.st8{fill:#DDECFE;fill-opacity:0.4;}
	.st9{fill:#FA705C;}
</style>
<title>Find Vehicle 2</title>
<desc>Created with Sketch.</desc>
<g id="_x34_.-How-it-works-_x2705_-">
	<g id="How-it-works" transform="translate(-356.000000, -986.000000)">
		<g id="BidCars-Steps" transform="translate(0.000000, 407.000000)">
			<g id="Step-2" transform="translate(356.000000, 579.000000)">
				<g id="Find-Vehicle-2">
					<g id="Find-Vehicle" transform="translate(133.000000, 107.500000) scale(1, -1) translate(-133.000000, -107.500000) ">
						<path id="Fill-1" class="st0" d="M55.5,99.6c10,20.5-26.2,41.6-19.9,70.6c5.6,26.1,42.4,44.6,73.2,44.7
							c30.7,0.1,60-18,73.9-40.4c9.5-15.2,7.9-25.8,18.9-31.6c18.7-10,38.4,12.7,52.3,4.7c16.6-9.5,17.7-57.5-6.4-86.1
							c-20.8-24.7-58.5-32.6-85.7-25.6c-17.1,4.4-22.3,12.7-35.1,10.1c-20.1-4.1-19.4-27-41.5-39.1C64.7-4.2,30.6-2.9,12.7,18.2
							C1,31.9-4.6,54.9,4.6,70.4C17,91.3,46.9,82,55.5,99.6"/>
						
							<g id="Group-12" transform="translate(120.000000, 118.000000) scale(1, -1) translate(-120.000000, -118.000000) translate(40.000000, 38.000000)">
							<g id="Group-3" transform="translate(11.267606, 11.645070)">
								<g id="Clip-2">
								</g>
								<defs>
									<filter id="Adobe_OpacityMaskFilter" filterUnits="userSpaceOnUse" x="1.1" y="0" width="147.6" height="147.6">
										<feColorMatrix  type="matrix" values="1 0 0 0 0  0 1 0 0 0  0 0 1 0 0  0 0 0 1 0"/>
									</filter>
								</defs>
								<mask maskUnits="userSpaceOnUse" x="1.1" y="0" width="147.6" height="147.6" id="mask-2_1_">
									<g class="st1">
										<polygon id="path-1_1_" class="st2" points="1.1,0 148.6,0 148.6,147.6 1.1,147.6 										"/>
									</g>
								</mask>
								<path id="Fill-1_1_" class="st3" d="M148.6,73.8c0,40.7-33,73.8-73.8,73.8c-40.8,0-73.8-33-73.8-73.8
									C1.1,33.1,34.1,0,74.9,0C115.6,0,148.6,33.1,148.6,73.8"/>
							</g>
							<path id="Fill-4" class="st4" d="M134.2,85.5c0,26.6-21.5,48.1-48.1,48.1S38,112,38,85.5c0-26.6,21.5-48.1,48.1-48.1
								S134.2,58.9,134.2,85.5"/>
							<path id="Fill-6" class="st5" d="M108.3,85.5c0,12.2-9.9,22.2-22.2,22.2S64,97.7,64,85.5c0-12.2,9.9-22.2,22.2-22.2
								S108.3,73.2,108.3,85.5"/>
							<path id="Fill-8" class="st6" d="M54.9,49.6l32.5,32.5c1.5,1.5,1.5,3.9,0,5.3c-1.5,1.5-3.9,1.5-5.3,0L10.7,16.1
								c-1.5-1.5-1.5-3.9,0-5.3c1.5-1.5,3.9-1.5,5.3,0l24.5,24.5"/>
							<path id="Fill-10" class="st7" d="M48.6,33.8l0.2-2.4c0.2-3.1-0.9-6.2-3.1-8.4L23.4,0.8c-1.6-1.6-4.2-0.6-4.4,1.6L18,18
								L2.4,19c-2.2,0.1-3.2,2.8-1.6,4.4L23,45.6c2.2,2.2,5.2,3.3,8.4,3.1l12.8-0.9c2-0.1,3.7-1.8,3.8-3.8L48.6,33.8z"/>
						</g>
						<circle id="Oval-Copy-13" class="st8" cx="18" cy="151" r="4"/>
						<circle id="Oval-Copy-16" class="st7" cx="200" cy="212" r="2"/>
						<circle id="Oval-Copy-10" class="st7" cx="216.5" cy="179.5" r="5.5"/>
						<circle id="Oval-Copy-9" class="st9" cx="72.5" cy="16.5" r="5.5"/>
						<circle id="Oval-Copy-17" class="st9" cx="103" cy="4" r="3"/>
						<circle id="Oval-Copy-12" class="st8" cx="180.5" cy="14.5" r="3.5"/>
						<circle id="Oval-Copy-15" class="st8" cx="193" cy="29" r="2"/>
					</g>
				</g>
			</g>
		</g>
	</g>
</g>
</svg>
