<?xml version="1.0" encoding="utf-8"?>
<!-- Generator: Adobe Illustrator 22.1.0, SVG Export Plug-In . SVG Version: 6.00 Build 0)  -->
<svg version="1.1" id="Layer_1" xmlns="http://www.w3.org/2000/svg" xmlns:xlink="http://www.w3.org/1999/xlink" x="0px" y="0px"
	 viewBox="0 0 285 231" style="enable-background:new 0 0 285 231;" xml:space="preserve">
<style type="text/css">
	.st0{fill:#DDECFE;fill-opacity:0.35;}
	.st1{fill:#21D3AC;}
	.st2{filter:url(#Adobe_OpacityMaskFilter);}
	.st3{fill:#FFFFFF;}
	.st4{mask:url(#mask-2_1_);fill:#4988FD;}
	.st5{filter:url(#Adobe_OpacityMaskFilter_1_);}
	.st6{mask:url(#mask-4_1_);fill:#4988FD;}
	.st7{filter:url(#Adobe_OpacityMaskFilter_2_);}
	.st8{mask:url(#mask-6_1_);fill:#4988FD;}
	.st9{fill:#DDECFE;fill-opacity:0.4;}
	.st10{fill:#FA705C;}
</style>
<title>Bidding Power 2</title>
<desc>Created with Sketch.</desc>
<g id="_x34_.-How-it-works-_x2705_-">
	<g id="How-it-works" transform="translate(-800.000000, -1274.000000)">
		<g id="BidCars-Steps" transform="translate(0.000000, 407.000000)">
			<g id="Step-3" transform="translate(355.000000, 867.000000)">
				<g id="Bidding-Power-2" transform="translate(445.000000, 0.000000)">
					<g id="Bidding-Power">
						<g id="Group-20">
							<g id="Group-3">
								<path id="Fill-1" class="st0" d="M59.5,124c10.7-22-28-44.6-21.3-75.9C44.2,20,83.6,0.2,116.6,0
									c32.9-0.2,64.3,19.3,79.2,43.4c10.1,16.3,8.5,27.7,20.2,34c20.1,10.8,41.1-13.6,56-5.1c17.8,10.2,19,61.8-6.9,92.5
									c-22.3,26.6-62.7,35-91.8,27.5c-18.3-4.7-23.9-13.6-37.6-10.8c-21.6,4.4-20.8,29-44.5,42.1c-21.9,12.1-58.5,10.7-77.7-12.1
									c-12.4-14.7-18.5-39.4-8.7-56C18.2,132.9,50.3,142.9,59.5,124"/>
							</g>
							<g id="Group-14" transform="translate(62.000000, 25.000000)">
								<path id="Fill-1_1_" class="st1" d="M139.1,32.5L124.5,3c-1.3-2.6-4.5-3.7-7.1-2.4L87.8,15.1c-2.6,1.3-3.7,4.5-2.4,7.1
									c1.3,2.6,4.5,3.7,7.1,2.4l18.1-8.9C91.6,64.6,30,94,4.1,100.1c-2.9,0.7-4.6,3.5-4,6.4c0.6,2.4,2.8,4.1,5.2,4.1
									c0.4,0,0.8,0,1.2-0.1c28.9-6.8,93.6-37.8,114.1-91.2l8.9,18c0.9,1.9,2.8,3,4.8,3c0.8,0,1.6-0.2,2.3-0.6
									C139.3,38.3,140.4,35.1,139.1,32.5"/>
								<path id="Fill-3" class="st1" d="M139.1,32.5L124.5,3c-1.3-2.6-4.5-3.7-7.1-2.4L87.8,15.1c-2.6,1.3-3.7,4.5-2.4,7.1
									c1.3,2.6,4.5,3.7,7.1,2.4l18.1-8.9C91.6,64.6,30,94,4.1,100.1c-2.9,0.7-4.6,3.5-4,6.4c0.6,2.4,2.8,4.1,5.2,4.1
									c0.4,0,0.8,0,1.2-0.1c28.9-6.8,93.6-37.8,114.1-91.2l8.9,18c0.9,1.9,2.8,3,4.8,3c0.8,0,1.6-0.2,2.3-0.6
									C139.3,38.3,140.4,35.1,139.1,32.5"/>
								<g id="Group-7" transform="translate(0.000000, 133.993770)">
									<g id="Clip-6">
									</g>
									<defs>
										<filter id="Adobe_OpacityMaskFilter" filterUnits="userSpaceOnUse" x="0.8" y="0.6" width="30.3" height="32.7">
											<feColorMatrix  type="matrix" values="1 0 0 0 0  0 1 0 0 0  0 0 1 0 0  0 0 0 1 0"/>
										</filter>
									</defs>
									<mask maskUnits="userSpaceOnUse" x="0.8" y="0.6" width="30.3" height="32.7" id="mask-2_1_">
										<g class="st2">
											<polygon id="path-1_1_" class="st3" points="0.8,0.6 31.1,0.6 31.1,33.3 0.8,33.3 											"/>
										</g>
									</mask>
									<path id="Fill-5" class="st4" d="M27.3,33.3H4.7c-2.1,0-3.9-1.7-3.9-3.9v-25c0-2.1,1.7-3.9,3.9-3.9h22.6
										c2.1,0,3.9,1.7,3.9,3.9v25C31.1,31.6,29.4,33.3,27.3,33.3"/>
								</g>
								<g id="Group-10" transform="translate(50.491803, 105.305246)">
									<g id="Clip-9">
									</g>
									<defs>
										<filter id="Adobe_OpacityMaskFilter_1_" filterUnits="userSpaceOnUse" x="0.4" y="0.1" width="30.3" height="61.9">
											<feColorMatrix  type="matrix" values="1 0 0 0 0  0 1 0 0 0  0 0 1 0 0  0 0 0 1 0"/>
										</filter>
									</defs>
									<mask maskUnits="userSpaceOnUse" x="0.4" y="0.1" width="30.3" height="61.9" id="mask-4_1_">
										<g class="st5">
											<polygon id="path-3_1_" class="st3" points="0.4,0.1 30.7,0.1 30.7,62 0.4,62 											"/>
										</g>
									</mask>
									<path id="Fill-8" class="st6" d="M26.8,62H4.2c-2.1,0-3.9-1.7-3.9-3.9V3.9c0-2.1,1.7-3.9,3.9-3.9h22.6
										c2.1,0,3.9,1.7,3.9,3.9v54.2C30.7,60.2,29,62,26.8,62"/>
								</g>
								<g id="Group-13" transform="translate(99.836066, 65.141311)">
									<g id="Clip-12">
									</g>
									<defs>
										<filter id="Adobe_OpacityMaskFilter_2_" filterUnits="userSpaceOnUse" x="1.1" y="0.4" width="30.3" height="101.8">
											<feColorMatrix  type="matrix" values="1 0 0 0 0  0 1 0 0 0  0 0 1 0 0  0 0 0 1 0"/>
										</filter>
									</defs>
									<mask maskUnits="userSpaceOnUse" x="1.1" y="0.4" width="30.3" height="101.8" id="mask-6_1_">
										<g class="st7">
											<polygon id="path-5_1_" class="st3" points="1.1,0.4 31.4,0.4 31.4,102.1 1.1,102.1 											"/>
										</g>
									</mask>
									<path id="Fill-11" class="st8" d="M27.5,102.1H4.9c-2.1,0-3.9-1.7-3.9-3.9v-94c0-2.1,1.7-3.9,3.9-3.9h22.6
										c2.1,0,3.9,1.7,3.9,3.9v94C31.4,100.4,29.7,102.1,27.5,102.1"/>
								</g>
							</g>
						</g>
						<circle id="Oval" class="st9" cx="209" cy="53" r="4"/>
						<circle id="Oval-Copy-6" class="st9" cx="211" cy="218" r="4"/>
						<circle id="Oval-Copy-5" class="st1" cx="54" cy="204" r="4"/>
						<circle id="Oval-Copy" class="st1" cx="238.5" cy="60.5" r="5.5"/>
						<circle id="Oval-Copy-7" class="st10" cx="40.5" cy="34.5" r="5.5"/>
						<circle id="Oval-Copy-2" class="st9" cx="218.5" cy="32.5" r="3.5"/>
						<circle id="Oval-Copy-3" class="st9" cx="48" cy="139" r="2"/>
						<circle id="Oval-Copy-4" class="st1" cx="213" cy="13" r="2"/>
						<circle id="Oval-Copy-8" class="st9" cx="58" cy="11" r="2"/>
						<g id="Group-9" transform="translate(30.000000, 57.000000)">
							<g id="Group-3_1_" transform="translate(0.000000, 0.303100)">
								<g id="Clip-2">
								</g>
							</g>
						</g>
					</g>
				</g>
			</g>
		</g>
	</g>
</g>
</svg>
